<svg width="20" height="20" viewBox="0 0 20 20" fill="none" xmlns="http://www.w3.org/2000/svg">
<path fill-rule="evenodd" clip-rule="evenodd" d="M14.9834 0.219426C13.8964 -0.230829 12.8412 0.0501945 12.0906 0.713451C11.3575 1.36131 10.9095 2.369 10.9095 3.43963V4.3176C10.9095 6.9536 13.0464 9.0905 15.6824 9.0905H16.5604C17.631 9.0905 18.6387 8.64253 19.2865 7.90938C19.9498 7.15881 20.2308 6.10358 19.7806 5.01657C19.3351 3.94114 18.6822 2.96399 17.8591 2.14089C17.036 1.3178 16.0589 0.664882 14.9834 0.219426ZM12.2732 3.43963C12.2732 2.73572 12.5711 2.10874 12.9936 1.73533C13.3988 1.37731 13.9091 1.25048 14.4616 1.47931C15.3715 1.85623 16.1984 2.4087 16.8948 3.10516C17.5913 3.80163 18.1438 4.62845 18.5207 5.53843C18.7495 6.09088 18.6227 6.60123 18.2647 7.00638C17.8913 7.42894 17.2643 7.72682 16.5604 7.72682H15.6824C13.7995 7.72682 12.2732 6.20046 12.2732 4.3176V3.43963Z" fill="#5E5F60"/>
<path fill-rule="evenodd" clip-rule="evenodd" d="M9.54581 4.77216C9.54581 3.44543 8.42149 2.14857 6.91034 2.49004C5.85556 2.72838 4.84776 3.15898 3.93941 3.76592C2.48174 4.7399 1.34563 6.12427 0.674733 7.74394C0.00384063 9.36362 -0.171695 11.1459 0.170323 12.8653C0.51234 14.5847 1.35655 16.1642 2.5962 17.4038C3.83585 18.6434 5.41525 19.4877 7.13469 19.8297C8.85413 20.1717 10.6364 19.9962 12.2561 19.3253C13.8757 18.6544 15.2601 17.5183 16.2341 16.0606C16.841 15.1522 17.2716 14.1444 17.51 13.0897C17.8514 11.5785 16.5546 10.4542 15.2278 10.4542H13.4096C11.2757 10.4542 9.54581 8.72432 9.54581 6.59041V4.77216ZM7.2109 3.82019C7.65874 3.719 8.18212 4.09052 8.18212 4.77216V6.59041C8.18212 9.47746 10.5225 11.8179 13.4096 11.8179H15.2278C15.9095 11.8179 16.281 12.3413 16.1798 12.7891C15.9781 13.6816 15.6138 14.5344 15.1002 15.303C14.2761 16.5364 13.1047 17.4977 11.7342 18.0654C10.3637 18.6331 8.85564 18.7816 7.40073 18.4922C5.94582 18.2028 4.6094 17.4885 3.56047 16.4395C2.51154 15.3906 1.79721 14.0542 1.50781 12.5993C1.21841 11.1444 1.36694 9.6363 1.93462 8.2658C2.50229 6.89531 3.46362 5.72392 4.69704 4.89978C5.46563 4.38622 6.31837 4.02187 7.2109 3.82019Z" fill="#5E5F60"/>
</svg>
