<svg width="21" height="20" viewBox="0 0 21 20" fill="none" xmlns="http://www.w3.org/2000/svg">
<path fill-rule="evenodd" clip-rule="evenodd" d="M14.1156 8.54499C14.6822 7.14528 13.3063 5.74555 11.9303 6.32191L9.36963 7.39452C8.72097 7.66623 8.20586 8.19024 7.93877 8.8501L6.88437 11.455C6.31781 12.8547 7.69375 14.2544 9.0697 13.6781L11.6304 12.6055C12.279 12.3338 12.7941 11.8098 13.0612 11.1499L14.1156 8.54499ZM12.4766 7.67164C12.6732 7.5893 12.8698 7.78926 12.7888 7.98922L11.7344 10.5941C11.613 10.8941 11.3789 11.1323 11.084 11.2558L8.52336 12.3284C8.3268 12.4107 8.13024 12.2107 8.21118 12.0108L9.26557 9.40587C9.38698 9.10594 9.62112 8.86775 9.91597 8.74424L12.4766 7.67164Z" fill="#5E5F60"/>
<path fill-rule="evenodd" clip-rule="evenodd" d="M13.4336 0.0699481C12.664 -1.07304e-05 11.7235 -5.91727e-06 10.5337 1.14951e-07H10.4663C9.27649 -6.03328e-06 8.33602 -1.09624e-05 7.56637 0.0699479C6.77579 0.141809 6.11455 0.290736 5.48959 0.616873C5.32771 0.701355 5.17004 0.793957 5.01717 0.894335C4.42705 1.28184 3.96964 1.78993 3.51318 2.45049C3.0688 3.09356 2.59856 3.9221 2.00366 4.97032L1.96997 5.02968C1.37506 6.07789 0.904816 6.90643 0.57955 7.61946C0.245436 8.35188 0.0415964 9.00889 0.00676668 9.72254C-0.00225555 9.9074 -0.00225555 10.0926 0.00676662 10.2775C0.0415963 10.9911 0.245436 11.6481 0.579549 12.3805C0.904812 13.0936 1.37505 13.9221 1.96995 14.9703L2.00364 15.0297C2.59855 16.0779 3.06879 16.9064 3.51318 17.5495C3.96964 18.2101 4.42705 18.7182 5.01717 19.1057C5.17004 19.206 5.3277 19.2986 5.48959 19.3831C6.11454 19.7093 6.77579 19.8582 7.56637 19.9301C8.33601 20 9.27646 20 10.4663 20H10.5337C11.7235 20 12.664 20 13.4336 19.9301C14.2242 19.8582 14.8855 19.7093 15.5104 19.3831C15.6723 19.2986 15.83 19.206 15.9828 19.1057C16.5729 18.7182 17.0304 18.2101 17.4868 17.5495C17.9312 16.9065 18.4014 16.0779 18.9963 15.0297L19.03 14.9703C19.6249 13.9221 20.0952 13.0936 20.4205 12.3805C20.7546 11.6481 20.9584 10.9911 20.9932 10.2775C21.0023 10.0926 21.0023 9.9074 20.9932 9.72254C20.9584 9.00889 20.7546 8.35188 20.4205 7.61946C20.0952 6.90643 19.6249 6.07788 19.03 5.02966L18.9963 4.97026C18.4014 3.92207 17.9312 3.09355 17.4868 2.45049C17.0304 1.78993 16.5729 1.28184 15.9828 0.894336C15.83 0.793957 15.6723 0.701356 15.5104 0.616874C14.8855 0.290736 14.2242 0.14181 13.4336 0.0699481ZM6.14453 1.91562C6.54746 1.70535 7.00933 1.58607 7.69408 1.52383C8.3925 1.46034 9.26907 1.45967 10.5 1.45967C11.7309 1.45967 12.6075 1.46034 13.3059 1.52383C13.9907 1.58607 14.4525 1.70535 14.8555 1.91562C14.9751 1.97807 15.0917 2.04651 15.2046 2.1207C15.5851 2.37054 15.9176 2.71781 16.313 3.28993C16.7162 3.8735 17.1551 4.64541 17.7705 5.72984C18.386 6.81427 18.8237 7.58685 19.1189 8.23389C19.4083 8.86826 19.5377 9.3348 19.5601 9.79492C19.5668 9.93156 19.5668 10.0684 19.5601 10.2051C19.5377 10.6652 19.4083 11.1317 19.1189 11.7661C18.8237 12.4132 18.386 13.1857 17.7705 14.2702C17.1551 15.3546 16.7162 16.1265 16.313 16.7101C15.9176 17.2822 15.5851 17.6295 15.2046 17.8793C15.0917 17.9535 14.9751 18.0219 14.8555 18.0844C14.4525 18.2947 13.9907 18.4139 13.3059 18.4762C12.6075 18.5397 11.7309 18.5403 10.5 18.5403C9.26907 18.5403 8.3925 18.5397 7.69408 18.4762C7.00933 18.4139 6.54746 18.2947 6.14453 18.0844C6.02488 18.0219 5.90834 17.9535 5.79535 17.8793C5.41488 17.6295 5.0824 17.2822 4.68704 16.7101C4.28378 16.1265 3.84492 15.3546 3.22946 14.2702C2.614 13.1857 2.17628 12.4132 1.88112 11.7661C1.59173 11.1317 1.46234 10.6652 1.43989 10.2051C1.43322 10.0684 1.43322 9.93155 1.43989 9.79492C1.46234 9.3348 1.59173 8.86826 1.88112 8.23389C2.17628 7.58685 2.614 6.81427 3.22946 5.72984C3.84492 4.64541 4.28378 3.87349 4.68704 3.28993C5.0824 2.71781 5.41488 2.37054 5.79535 2.1207C5.90834 2.04651 6.02488 1.97807 6.14453 1.91562Z" fill="#5E5F60"/>
</svg>
