<svg width="20" height="20" viewBox="0 0 20 20" fill="none" xmlns="http://www.w3.org/2000/svg">
<path fill-rule="evenodd" clip-rule="evenodd" d="M19.9167 5.37602C20.5187 2.23704 17.7629 -0.518777 14.6239 0.0832295L5.61161 1.81165C3.65249 2.18738 2.08571 3.67034 1.58793 5.59727C0.5941 9.4445 4.16202 12.9606 7.99299 11.834C8.09879 11.8029 8.19708 11.9012 8.16597 12.007C7.03938 15.838 10.5555 19.4059 14.4027 18.4121C16.3297 17.9143 17.8126 16.3475 18.1883 14.3884L19.9167 5.37602ZM14.9022 1.53437C17.0156 1.12907 18.8709 2.98441 18.4656 5.09772L16.7372 14.1101C16.4699 15.5038 15.4117 16.6253 14.0332 16.9814C11.2778 17.6932 8.78621 15.1351 9.58353 12.4238C9.94458 11.1961 8.80388 10.0554 7.57612 10.4164C4.86484 11.2138 2.30679 8.72216 3.01856 5.96684C3.37466 4.58832 4.49617 3.53009 5.88991 3.26279L14.9022 1.53437Z" fill="white"/>
<path d="M2.65428 14.2113C2.9428 13.9228 2.9428 13.455 2.65428 13.1665C2.36576 12.878 1.89799 12.878 1.60947 13.1665L0.216388 14.5596C-0.0721291 14.8481 -0.0721292 15.3159 0.216387 15.6044C0.504904 15.8929 0.972682 15.8929 1.2612 15.6044L2.65428 14.2113Z" fill="white"/>
<path d="M6.13698 14.9078C6.4255 14.6193 6.4255 14.1515 6.13698 13.863C5.84847 13.5745 5.38069 13.5745 5.09217 13.863L3.69909 15.2561C3.41057 15.5446 3.41057 16.0124 3.69909 16.3009C3.98761 16.5894 4.45538 16.5894 4.7439 16.3009L6.13698 14.9078Z" fill="white"/>
<path d="M6.83352 18.3905C7.12204 18.102 7.12204 17.6342 6.83352 17.3457C6.54501 17.0572 6.07723 17.0572 5.78871 17.3457L4.39563 18.7388C4.10712 19.0273 4.10712 19.4951 4.39563 19.7836C4.68415 20.0721 5.15193 20.0721 5.44044 19.7836L6.83352 18.3905Z" fill="white"/>
<path fill-rule="evenodd" clip-rule="evenodd" d="M19.9167 5.37602C20.5187 2.23704 17.7629 -0.518777 14.6239 0.0832295L5.61161 1.81165C3.65249 2.18738 2.08571 3.67034 1.58793 5.59727C0.5941 9.4445 4.16202 12.9606 7.99299 11.834C8.09879 11.8029 8.19708 11.9012 8.16597 12.007C7.03938 15.838 10.5555 19.4059 14.4027 18.4121C16.3297 17.9143 17.8126 16.3475 18.1883 14.3884L19.9167 5.37602ZM14.9022 1.53437C17.0156 1.12907 18.8709 2.98441 18.4656 5.09772L16.7372 14.1101C16.4699 15.5038 15.4117 16.6253 14.0332 16.9814C11.2778 17.6932 8.78621 15.1351 9.58353 12.4238C9.94458 11.1961 8.80388 10.0554 7.57612 10.4164C4.86484 11.2138 2.30679 8.72216 3.01856 5.96684C3.37466 4.58832 4.49617 3.53009 5.88991 3.26279L14.9022 1.53437Z" stroke="white"/>
<path d="M2.65428 14.2113C2.9428 13.9228 2.9428 13.455 2.65428 13.1665C2.36576 12.878 1.89799 12.878 1.60947 13.1665L0.216388 14.5596C-0.0721291 14.8481 -0.0721292 15.3159 0.216387 15.6044C0.504904 15.8929 0.972682 15.8929 1.2612 15.6044L2.65428 14.2113Z" stroke="white"/>
<path d="M6.13698 14.9078C6.4255 14.6193 6.4255 14.1515 6.13698 13.863C5.84847 13.5745 5.38069 13.5745 5.09217 13.863L3.69909 15.2561C3.41057 15.5446 3.41057 16.0124 3.69909 16.3009C3.98761 16.5894 4.45538 16.5894 4.7439 16.3009L6.13698 14.9078Z" stroke="white"/>
<path d="M6.83352 18.3905C7.12204 18.102 7.12204 17.6342 6.83352 17.3457C6.54501 17.0572 6.07723 17.0572 5.78871 17.3457L4.39563 18.7388C4.10712 19.0273 4.10712 19.4951 4.39563 19.7836C4.68415 20.0721 5.15193 20.0721 5.44044 19.7836L6.83352 18.3905Z" stroke="white"/>
</svg>
